<svg xmlns="http://www.w3.org/2000/svg" width="980" height="250" viewBox="0 0 980 250">
<rect width="980" height="250" fill="#111827"/>
<text x="24" y="226" fill="#e5e7eb" font-size="12">Meshy OneHandReady visual parity: yellow=right arm, blue=left arm, red=palm/down axis</text>
<g><line x1="127.07" y1="20.61" x2="221.94" y2="68.82" stroke="#eab308" stroke-width="3" stroke-linecap="round"/>
<line x1="221.94" y1="68.82" x2="194.94" y2="46.31" stroke="#eab308" stroke-width="3" stroke-linecap="round"/>
<circle cx="194.94" cy="46.31" r="4" fill="#eab308"/>
<line x1="194.94" y1="46.31" x2="193.36" y2="55.26" stroke="#ef4444" stroke-width="2" stroke-linecap="round"/>
<line x1="-70.34" y1="20.61" x2="-160.32" y2="68.69" stroke="#38bdf8" stroke-width="3" stroke-linecap="round"/>
<line x1="-160.32" y1="68.69" x2="-95.4" y2="59.89" stroke="#38bdf8" stroke-width="3" stroke-linecap="round"/>
<circle cx="-95.4" cy="59.89" r="4" fill="#38bdf8"/>
<line x1="-95.4" y1="59.89" x2="-116.26" y2="64.27" stroke="#ef4444" stroke-width="2" stroke-linecap="round"/>
<text x="10" y="24" fill="#d1d5db" font-size="12">t=0.042</text>
<text x="10" y="40" fill="#d1d5db" font-size="11">L palm 1.4 deg</text></g>
<g><line x1="312.07" y1="20.61" x2="406.37" y2="69.82" stroke="#eab308" stroke-width="3" stroke-linecap="round"/>
<line x1="406.37" y1="69.82" x2="379.79" y2="48.34" stroke="#eab308" stroke-width="3" stroke-linecap="round"/>
<circle cx="379.79" cy="48.34" r="4" fill="#eab308"/>
<line x1="379.79" y1="48.34" x2="378.04" y2="56.87" stroke="#ef4444" stroke-width="2" stroke-linecap="round"/>
<line x1="114.66" y1="20.61" x2="24.43" y2="66.96" stroke="#38bdf8" stroke-width="3" stroke-linecap="round"/>
<line x1="24.43" y1="66.96" x2="92.21" y2="55.31" stroke="#38bdf8" stroke-width="3" stroke-linecap="round"/>
<circle cx="92.21" cy="55.31" r="4" fill="#38bdf8"/>
<line x1="92.21" y1="55.31" x2="70.94" y2="60.42" stroke="#ef4444" stroke-width="2" stroke-linecap="round"/>
<text x="195" y="24" fill="#d1d5db" font-size="12">t=0.667</text>
<text x="195" y="40" fill="#d1d5db" font-size="11">L palm 5.6 deg</text></g>
<g><line x1="497.07" y1="20.61" x2="591.95" y2="68.82" stroke="#eab308" stroke-width="3" stroke-linecap="round"/>
<line x1="591.95" y1="68.82" x2="564.94" y2="46.3" stroke="#eab308" stroke-width="3" stroke-linecap="round"/>
<circle cx="564.94" cy="46.3" r="4" fill="#eab308"/>
<line x1="564.94" y1="46.3" x2="563.37" y2="55.25" stroke="#ef4444" stroke-width="2" stroke-linecap="round"/>
<line x1="299.66" y1="20.61" x2="209.69" y2="68.72" stroke="#38bdf8" stroke-width="3" stroke-linecap="round"/>
<line x1="209.69" y1="68.72" x2="274.55" y2="59.97" stroke="#38bdf8" stroke-width="3" stroke-linecap="round"/>
<circle cx="274.55" cy="59.97" r="4" fill="#38bdf8"/>
<line x1="274.55" y1="59.97" x2="253.7" y2="64.34" stroke="#ef4444" stroke-width="2" stroke-linecap="round"/>
<text x="380" y="24" fill="#d1d5db" font-size="12">t=1.25</text>
<text x="380" y="40" fill="#d1d5db" font-size="11">L palm 1.5 deg</text></g>
</svg>
